HIERARCHY
ROOT Hips
{
	OFFSET -14.64140 90.27770 -84.91600
	CHANNELS 6 Xposition Yposition Zposition Zrotation Xrotation Yrotation
	JOINT Spine
	{
		OFFSET 0.00000 13.20850 -1.60436
		CHANNELS 3 Zrotation Xrotation Yrotation
		JOINT Spine1
		{
			OFFSET 0.00000 8.61716 0.00000
			CHANNELS 3 Zrotation Xrotation Yrotation
			JOINT Spine2
			{
				OFFSET 0.00000 8.61717 0.00000
				CHANNELS 3 Zrotation Xrotation Yrotation
				JOINT Spine3
				{
					OFFSET 0.00000 8.61717 0.00000
					CHANNELS 3 Zrotation Xrotation Yrotation
					JOINT Neck
					{
						OFFSET 0.00000 11.07920 1.10792
						CHANNELS 3 Zrotation Xrotation Yrotation
						JOINT Neck1
						{
							OFFSET 0.00000 7.08032 0.00000
							CHANNELS 3 Zrotation Xrotation Yrotation
							JOINT Head
							{
								OFFSET 0.00000 7.08031 0.00000
								CHANNELS 3 Zrotation Xrotation Yrotation
								End site
								{
									OFFSET 0.00000 0.00000 0.00000
								}
							}
						}
					}
					JOINT RightShoulder
					{
						OFFSET -0.01000 7.91373 5.19711
						CHANNELS 3 Zrotation Xrotation Yrotation
						JOINT RightArm
						{
							OFFSET -18.41580 0.00000 0.00000
							CHANNELS 3 Zrotation Xrotation Yrotation
							JOINT RightForeArm
							{
								OFFSET -29.11090 0.00000 0.00000
								CHANNELS 3 Zrotation Xrotation Yrotation
								JOINT RightHand
								{
									OFFSET -24.65040 0.00000 0.00000
									CHANNELS 3 Zrotation Xrotation Yrotation
									JOINT RightHandThumb1
									{
										OFFSET -5.35114 -0.85590 3.97906
										CHANNELS 3 Zrotation Xrotation Yrotation
										JOINT RightHandThumb2
										{
											OFFSET -4.52789 0.00000 0.00000
											CHANNELS 3 Zrotation Xrotation Yrotation
											JOINT RightHandThumb3
											{
												OFFSET -2.46976 0.00000 0.00000
												CHANNELS 3 Zrotation Xrotation Yrotation
												End site
												{
													OFFSET 0.00000 0.00000 0.00000
												}
											}
										}
									}
									JOINT RightHandIndex1
									{
										OFFSET -14.26970 0.00000 2.88139
										CHANNELS 3 Zrotation Xrotation Yrotation
										JOINT RightHandIndex2
										{
											OFFSET -5.48836 0.00000 0.00000
											CHANNELS 3 Zrotation Xrotation Yrotation
											JOINT RightHandIndex3
											{
												OFFSET -3.01859 0.00000 0.00000
												CHANNELS 3 Zrotation Xrotation Yrotation
												End site
												{
													OFFSET 0.00000 0.00000 0.00000
												}
											}
										}
									}
									JOINT RightHandMiddle1
									{
										OFFSET -14.26970 0.00000 -0.09147
										CHANNELS 3 Zrotation Xrotation Yrotation
										JOINT RightHandMiddle2
										{
											OFFSET -6.17441 0.00000 0.00000
											CHANNELS 3 Zrotation Xrotation Yrotation
											JOINT RightHandMiddle3
											{
												OFFSET -3.56743 0.00000 0.00000
												CHANNELS 3 Zrotation Xrotation Yrotation
												End site
												{
													OFFSET 0.00000 0.00000 0.00000
												}
											}
										}
									}
									JOINT RightHandRing1
									{
										OFFSET -12.69180 0.00000 -3.06433
										CHANNELS 3 Zrotation Xrotation Yrotation
										JOINT RightHandRing2
										{
											OFFSET -5.62556 0.00000 0.00000
											CHANNELS 3 Zrotation Xrotation Yrotation
											JOINT RightHandRing3
											{
												OFFSET -3.56744 0.00000 0.00000
												CHANNELS 3 Zrotation Xrotation Yrotation
												End site
												{
													OFFSET 0.00000 0.00000 0.00000
												}
											}
										}
									}
									JOINT RightHandPinky1
									{
										OFFSET -11.11390 0.00000 -6.03719
										CHANNELS 3 Zrotation Xrotation Yrotation
										JOINT RightHandPinky2
										{
											OFFSET -4.52789 0.00000 0.00000
											CHANNELS 3 Zrotation Xrotation Yrotation
											JOINT RightHandPinky3
											{
												OFFSET -2.46976 0.00000 0.00000
												CHANNELS 3 Zrotation Xrotation Yrotation
												End site
												{
													OFFSET 0.00000 0.00000 0.00000
												}
											}
										}
									}
								}
							}
						}
					}
					JOINT LeftShoulder
					{
						OFFSET 0.01000 7.91373 5.19711
						CHANNELS 3 Zrotation Xrotation Yrotation
						JOINT LeftArm
						{
							OFFSET 18.41580 0.00000 0.00000
							CHANNELS 3 Zrotation Xrotation Yrotation
							JOINT LeftForeArm
							{
								OFFSET 29.11090 0.00000 0.00000
								CHANNELS 3 Zrotation Xrotation Yrotation
								JOINT LeftHand
								{
									OFFSET 24.65040 0.00000 0.00000
									CHANNELS 3 Zrotation Xrotation Yrotation
									JOINT LeftHandThumb1
									{
										OFFSET 5.35114 -0.85590 3.97906
										CHANNELS 3 Zrotation Xrotation Yrotation
										JOINT LeftHandThumb2
										{
											OFFSET 4.52789 0.00000 0.00000
											CHANNELS 3 Zrotation Xrotation Yrotation
											JOINT LeftHandThumb3
											{
												OFFSET 2.46977 0.00000 0.00000
												CHANNELS 3 Zrotation Xrotation Yrotation
												End site
												{
													OFFSET 0.00000 0.00000 0.00000
												}
											}
										}
									}
									JOINT LeftHandIndex1
									{
										OFFSET 14.26970 0.00000 2.88139
										CHANNELS 3 Zrotation Xrotation Yrotation
										JOINT LeftHandIndex2
										{
											OFFSET 5.48836 0.00000 0.00000
											CHANNELS 3 Zrotation Xrotation Yrotation
											JOINT LeftHandIndex3
											{
												OFFSET 3.01859 0.00000 0.00000
												CHANNELS 3 Zrotation Xrotation Yrotation
												End site
												{
													OFFSET 0.00000 0.00000 0.00000
												}
											}
										}
									}
									JOINT LeftHandMiddle1
									{
										OFFSET 14.26970 0.00000 -0.09147
										CHANNELS 3 Zrotation Xrotation Yrotation
										JOINT LeftHandMiddle2
										{
											OFFSET 6.17440 0.00000 0.00000
											CHANNELS 3 Zrotation Xrotation Yrotation
											JOINT LeftHandMiddle3
											{
												OFFSET 3.56744 0.00000 0.00000
												CHANNELS 3 Zrotation Xrotation Yrotation
												End site
												{
													OFFSET 0.00000 0.00000 0.00000
												}
											}
										}
									}
									JOINT LeftHandRing1
									{
										OFFSET 12.69180 0.00000 -3.06433
										CHANNELS 3 Zrotation Xrotation Yrotation
										JOINT LeftHandRing2
										{
											OFFSET 5.62556 0.00000 0.00000
											CHANNELS 3 Zrotation Xrotation Yrotation
											JOINT LeftHandRing3
											{
												OFFSET 3.56744 0.00000 0.00000
												CHANNELS 3 Zrotation Xrotation Yrotation
												End site
												{
													OFFSET 0.00000 0.00000 0.00000
												}
											}
										}
									}
									JOINT LeftHandPinky1
									{
										OFFSET 11.11390 0.00000 -6.03719
										CHANNELS 3 Zrotation Xrotation Yrotation
										JOINT LeftHandPinky2
										{
											OFFSET 4.52789 0.00000 0.00000
											CHANNELS 3 Zrotation Xrotation Yrotation
											JOINT LeftHandPinky3
											{
												OFFSET 2.46976 0.00000 0.00000
												CHANNELS 3 Zrotation Xrotation Yrotation
												End site
												{
													OFFSET 0.00000 0.00000 0.00000
												}
											}
										}
									}
								}
							}
						}
					}
					JOINT pCube4
					{
						OFFSET 0.00000 10.91090 1.10792
						CHANNELS 3 Zrotation Xrotation Yrotation
						End site
						{
							OFFSET 0.00000 0.00000 0.00000
						}
					}
				}
			}
		}
	}
	JOINT RightUpLeg
	{
		OFFSET -9.98441 0.00000 0.00000
		CHANNELS 3 Zrotation Xrotation Yrotation
		JOINT RightLeg
		{
			OFFSET 0.00000 -42.11790 0.00000
			CHANNELS 3 Zrotation Xrotation Yrotation
			JOINT RightFoot
			{
				OFFSET 0.00000 -45.00020 -0.00001
				CHANNELS 3 Zrotation Xrotation Yrotation
				JOINT RightForeFoot
				{
					OFFSET 0.00000 -3.74820 0.00000
					CHANNELS 3 Zrotation Xrotation Yrotation
					JOINT RightToeBase
					{
						OFFSET 0.00000 0.06325 14.43120
						CHANNELS 3 Zrotation Xrotation Yrotation
						End site
						{
							OFFSET 0.00000 0.00000 0.00000
						}
					}
				}
			}
		}
	}
	JOINT LeftUpLeg
	{
		OFFSET 9.98441 0.00000 0.00000
		CHANNELS 3 Zrotation Xrotation Yrotation
		JOINT LeftLeg
		{
			OFFSET 0.00000 -42.11800 0.00000
			CHANNELS 3 Zrotation Xrotation Yrotation
			JOINT LeftFoot
			{
				OFFSET 0.00000 -45.00070 0.00000
				CHANNELS 3 Zrotation Xrotation Yrotation
				JOINT LeftForeFoot
				{
					OFFSET 0.00000 -3.74824 0.00000
					CHANNELS 3 Zrotation Xrotation Yrotation
					JOINT LeftToeBase
					{
						OFFSET 0.00000 0.06325 14.43110
						CHANNELS 3 Zrotation Xrotation Yrotation
						End site
						{
							OFFSET 0.00000 0.00000 0.00000
						}
					}
				}
			}
		}
	}
}
MOTION
Frames: 4
Frame Time: 0.050000
0.013589625051573863 0.00402055724809421 -0.0053955769599695735 -0.020421910462134485 -0.020715098464445254 -0.019155577077325053 5.436681387323265 3.5680195915536035 -2.194362483298606 -0.7163152750176033 3.650444927170954 0.3597713363329412 -0.5848061969539878 -1.0367296348558022 0.9282786834289454 -0.5092605865894684 -0.2430937238851226 -0.2660942889220335 -0.13154379214774461 12.639494897598453 -1.1999479148550958 0.43114050784411356 -0.768392633305923 -2.2265015678810407 0.9303907255705683 -17.5564762868221 -0.19487642635582567 -9.984055008948973 3.4729752998836294 -17.956622988766497 83.850750489031 8.678841134242791 2.124952399378453 -4.219176309871767 7.295762286879401 44.21737444363297 17.63877751581588 -0.24147446739364495 -2.676044821746626 4.494862762052242 -0.1754005442608002 -1.5683643111994772 -0.03227272992878245 -0.006402574088324687 -56.18908105690174 0.04321578652826569 0.04329484515016329 -56.24218930411922 -38.79569513047772 -0.03710670404217845 -0.007880665380921727 -0.0228229936188518 0.012450172392820794 -0.03909165831179425 -0.00853172692312175 -0.0402865583779478 0.03560598566592583 -36.714796984213194 0.011041817503039817 0.04165921202670942 0.015473028092168424 0.004245458715947814 -0.0026428351448133814 0.03530468741905031 -0.0030512790647062296 -0.0015003376814251563 -19.733541396429487 -0.0190440534872761 -0.018891197319681165 -0.023449078685600158 -0.010462367412240698 -0.016616489532076867 -0.040229768464570596 -0.039736109715431706 0.04423383844953953 24.030890680032893 -0.007260528987559286 -0.008083193447848828 28.897284737251645 0.038239996702176274 0.03971997654386365 28.892259369586373 -0.024310953892439563 0.011154098189978454 10.12510298560837 2.4068788086501445 15.18573671487385 -78.43139168960971 17.6669696660871 -12.680628047811375 2.1705928306281193 7.199068158835381 -45.860715888391205 -18.992373516102 -0.7818857057354589 0.8415481325338858 -0.44472496335329315 0.04003391323533505 -8.159710473988788 0.03438884353325011 -0.03560491732362632 44.52511304623435 -0.03013688183063968 -0.011967748120845997 44.5862263716843 12.473731561175555 -0.010767325742139731 -0.004644583413816953 0.03464793863720782 0.01721717098330073 0.04348118372874262 -0.04641236840977413 0.03063641964332136 0.01185899400295721 11.109033838252884 -0.0022263404557432585 0.02573573657950846 0.00984763333187338 0.006950955267900574 0.010063616863455919 -0.012856346046672166 -0.01431656477377601 0.047523632117822574 4.77950027277134 0.020412617724704853 -0.03063479652628658 0.03850105209838949 -0.04895769545467917 0.03232562810524055 -0.01628907496578156 0.01178356154895826 0.01017652532888275 -5.643012509990432 -0.043933808906886876 -0.021003833417968396 -6.693131564052072 0.040556991571247675 -0.02264886216495742 -6.682587237067369 0.02445978726375825 0.04477047520166446 0.022366185892751026 0.02054473692556132 0.044022295760946295 8.069638646443849 3.5332846229902812 -19.2173989159336 0.03351460072520878 10.444181405273934 0.04216873769805843 -5.610682834540127 -15.620776210433936 3.2048035113819715 0.019366551845348908 0.032763388830210315 0.00025356718026560323 0.038434115880083254 4.739431991749288 0.009594017148025994 12.461726896309363 -8.200191487459064 6.882759441294324 0.016137265086524813 46.39436325061645 -0.009776786459088952 -4.324180606338933 -14.700330937992574 -3.8125794053995103 0.013001812712773888 0.010392059609747642 -0.03554974730339162 0.03680359227683744 -10.756032366019463 -0.008210444301331372 
0.03313169768519304 -0.003711047933854832 0.03138156441584352 0.0009566447734680088 0.014686632661403227 0.03972806459796498 5.580198824316753 3.395377930909363 -2.288452087147419 -0.7376946163030187 3.6178799133282453 0.39764496504954555 -0.5143909949589618 -1.132149223614593 0.7838439869258615 -0.5731521109123497 -0.3006124502979985 -0.24675532603019212 -0.3258693198640115 13.050897654016607 -0.9917463832408074 0.4255963230704284 -0.7207564505601535 -1.6608897067270116 0.8256121630253661 -17.463236444235086 -0.15578720271021426 -10.107685477098066 3.45385017517265 -17.974947443794346 83.87931873450384 8.469703621020296 2.418034299270476 -4.167014057458754 7.525107584193079 44.28390722208471 17.752192839079353 -0.23614733982456143 -2.5942678585359094 4.491657900832161 -0.14717361692375097 -1.5695413459991943 -0.02351927971744406 0.0031838149567040897 -56.256242621809996 0.022394211382408304 0.0012472077787870515 -56.23945369024178 -38.78201190887475 -0.045129195732859215 0.029165699720624626 -0.0046777509257868895 0.04780260686184821 -0.01568345776399074 0.009340287969295749 -0.02979581623347086 -0.03365516859073301 -36.65248600875827 -0.023132294957442495 -0.007667089602849283 0.019185925219804657 -0.02503490019780683 -0.01233401855050358 -0.04090769771387433 -0.028789165499509283 -0.011899043417794913 -19.804523290606067 -0.02956337228376399 0.021139268491432536 0.014980678683298531 0.0164120452420044 -0.015058900924021134 -0.013531086943771501 -0.045350981845541205 -0.025246496981574003 24.06455015278116 0.007677889155778561 0.026670848751783802 28.883852741127733 0.018948542149946852 0.0363876349086293 28.86408253333716 -0.0335192399573068 0.04627089061418227 10.862909793330136 2.579418818136949 15.43216867116926 -79.11358855617586 15.615089608262283 -16.735417544869463 0.5828219825583918 9.488590547152425 -50.76655854337797 -18.124865628462757 -0.3431114959087769 0.17631682017772693 -0.43747391260893614 0.04813980454180328 -8.122647553971404 0.010428802889742914 -0.03494420295058531 44.601870410320906 0.012358881896762456 -0.022933718035853406 44.54663232324769 12.449567812474925 -0.010704417641287415 0.0004001888405168054 0.03566365324969316 -0.02987434469466576 -0.040736101271737296 0.04943088354125625 0.0019088503106185703 -0.003048077205947878 11.05900838586838 0.031571840443589703 0.011493035040823246 0.03954347034472375 -0.04557724229473918 -0.002408024355170713 0.0035746746069632283 -0.003401588459818831 -0.040780906469465125 4.729264589916497 -0.044386018938447104 0.04833928489519728 -0.03258287779024484 0.015001920555036276 0.008802231572957215 0.0059184147242597055 -0.038898979954037745 0.04091508985286347 -5.557290748548479 0.03291123805295932 0.02054483745777074 -6.7443647179357225 -0.033393512694673444 -0.014192501963953691 -6.740622253687844 -0.048062413653862004 0.03915809434966277 0.021413017457080977 -0.023517599600911765 -0.0028689867765804974 8.001340042724031 3.486526083264268 -19.24065068902497 -0.028478780160452754 10.376465125023975 -0.01651788192746886 -5.577673265071011 -15.635459170300756 3.189334994486966 -0.009078143514407552 -0.046835788770786986 -0.035987582898373977 -0.017130127297973995 4.715360929039119 -0.0239483721366054 12.495006003218995 -8.211880399372317 6.921168470169681 0.03757023543032507 46.33675467182172 -0.026164679377629178 -4.33863315466117 -14.772085890958053 -3.822550658428584 -0.0154224611082578 -0.009554959576118613 0.03530928649390615 -0.043484089424081766 -10.772889673798941 0.04478270090976824 
0.03890665254290679 0.003216399509569048 -0.011688026899893095 0.029545251329466855 0.028938098890790923 -0.02476308978422534 5.5790484262489155 3.327734320283077 -2.2374502103749863 -0.7899326887354492 3.6954512117247122 0.4109437078299006 -0.5467362952317913 -1.1023133237709564 0.6413344555993618 -0.5468257011660885 -0.39330842838078556 -0.2080461993796103 -0.493705933252585 13.500543126082249 -0.8635023605959874 0.3541038708462186 -0.5663406272661374 -1.1047615494861427 0.764796437132807 -17.35205987331828 -0.1847936774226414 -10.227543495065003 3.4793673317255274 -17.99256647169537 83.77931448068759 8.016512541305064 2.795142147278784 -4.1316161030011775 7.650157520755356 44.30554495474064 17.898161380105442 -0.2440489587865277 -2.3670485594989117 4.558452309358674 -0.1369185361656731 -1.6184778484862952 -0.04390538932341059 0.004538915347391746 -56.27284597289705 0.029412582614271456 0.0040274695679812554 -56.26178370675616 -38.72969126091851 0.029050540941010797 -0.03663873480381437 0.04084274655151827 -0.044562509495310154 -0.02149390103125571 0.03998431302498272 0.04736796725796132 0.04833317120707897 -36.683469841975004 -0.039215589284447544 0.016433919652114593 -0.042635002923882004 0.026830415192824184 -0.02823605587956197 0.027362967414684948 0.031669785744584296 0.005085088070611489 -19.723888948720873 0.017206683079822108 0.022620883566487494 0.022624856711296097 0.0301347469339375 -0.0338570081380813 0.01656415442569783 0.010200376829183793 0.02044488743277678 24.00798019436888 -0.024391664442246285 -0.028601616025515482 28.869733835027898 -0.01272371342889915 -0.0024319088023086795 28.826229630682413 0.031654457457433456 0.0015186801193408403 11.739420931268974 2.6914291056680435 15.689564604340058 -79.63534663123569 13.001928920335487 -21.27504879618718 -0.9391243931545958 11.640169774397227 -56.29674557184626 -16.907988877729135 0.355769187781356 -0.795199895012731 -0.47243098643632075 0.09058264430711925 -8.105592443823067 0.013248957596812001 0.006582339812436106 44.61447134679479 -0.036351144806269046 0.004772197102786556 44.55932788931105 12.472004922163585 0.005314430676668889 0.007195767247349718 0.04463720747025588 0.006873043066827998 0.008407905806156942 0.03189698993589949 -0.018897243963273812 -0.041546352040481536 11.063624676918346 -0.00523626920304803 -0.025171153025105784 0.0012171471156579088 0.01737220191227188 0.0037893122511035147 -0.000525920910730864 0.043209321061525946 -0.026761375945101674 4.7788133403313955 0.02057228389491177 -0.03295416003201274 -0.011692169211025451 0.010652720340699055 -0.01217956102043475 -0.019839905464141903 -0.04975109959196364 -0.014738170369224032 -5.617921272977177 0.02282389629704235 0.0014401782061634586 -6.7007780967264985 -0.033270534667996114 -0.016959300789749707 -6.741369689108446 -0.013971845376369385 0.0024718151730790962 0.031003125658942983 -0.0176222129410814 -0.04747393751886246 8.014000041391478 3.4778546792654104 -19.185943594843224 -0.04227132262520555 10.432807049189059 0.03683124151206625 -5.61845211647413 -15.646783999482926 3.1623021735779235 -0.022355072590720188 -0.0033507100408604654 -0.00493900060078827 -0.045400889626143116 4.7197687178160805 -0.03603927353332598 12.480228421722211 -8.207220895011766 6.843770553535013 0.029360616026859836 46.363568002242594 0.025098901697944986 -4.303552768550644 -14.753152596282776 -3.872256337535752 -0.016383725157775416 0.03615283655452508 -0.010552988678109386 0.023578442694163062 -10.722676547092265 -0.0347743088114957 
0.03977072753960301 -0.04749749783929635 -0.02662749871968565 0.015794601970482686 0.00565451847317925 -0.030329617135378968 5.661068713448692 3.290761967005198 -2.259965353486332 -0.7205098799384483 3.7329471678312283 0.345944776908684 -0.44971747707281506 -1.2038763436904614 0.49345693767831106 -0.5479872263643831 -0.34382647194088856 -0.2643949089114771 -0.5611363611679486 13.663384591923197 -0.7403194659527099 0.33973936550185146 -0.6200511531899168 -0.8065546479600343 0.6705322980674909 -17.341279794157842 -0.12273051308054905 -10.206488929190307 3.5457193414646855 -17.980350030111147 83.71410233669174 7.911700085291145 2.82962387915047 -4.093385584440419 7.677958398631379 44.00124566012538 17.91735217584871 -0.23956730578675964 -2.2109462884796414 4.512393329274282 -0.12390988253740427 -1.6253013173687796 -0.026606821680225736 0.011472829439947551 -56.25391549603873 0.037232216053391665 0.0034125352792595213 -56.26251481226381 -38.741271784946605 0.04011697807451072 0.02732120296344063 -0.007041989809806963 -0.020691551566988212 -0.025184217995122188 0.041662326700105216 0.03599456656284286 0.005455424006548016 -36.654171018752585 -0.009542549872060664 0.030772262311278727 -0.014729290563007527 -0.030198796625272566 -0.006794692679433298 -0.02459655932754968 -0.001837974317072939 0.04849315018035823 -19.797487258785004 -0.04562363838573002 0.019750941030928743 0.04154628201282566 0.01404227313052398 -0.0009587100186495909 0.026493797768816604 -0.027610847544142853 0.026347011247537102 24.064016348287506 0.0076472244104161926 0.02549067861021837 28.880078780761874 -0.01786781828749905 -0.002137263276859686 28.88599038798349 -0.010020291143532737 0.018074752997038566 12.286293983628157 2.7806669405103146 15.775850311560314 -79.78002235485017 10.967075443005518 -24.697151109675914 -1.7245564949665344 13.125235417443886 -60.481117080016084 -15.766756023247426 1.0927426092359505 -1.642952204254429 -0.4590724685566305 0.04768411326812497 -8.123557749881842 -0.026632784990392278 -0.0294517782936411 44.60387210380003 0.020156360084996022 0.004108035234678796 44.60122241958354 12.466152209660688 0.011400287630127839 0.03705146410660301 0.04535857211328206 -0.022224782208271 -0.021549029579429987 -0.018563541393362 0.0429089993034438 0.010174345140141849 11.078574254378577 0.001929905023333385 -0.02741928848116815 -0.006667480944930266 0.013945550391817028 0.01712072574710811 0.03113309766330324 -0.01280634436141459 0.01810109598369686 4.770951018874941 -0.006015940644153663 0.02966410678124288 -0.016468227756746466 -0.024088737325692097 0.03679266029520004 0.0059703135843451926 0.04650927504022293 -0.04475904620515604 -5.584256290362687 0.007020756588343731 -0.04093088071788921 -6.741168898770564 0.020456606492637565 -0.010064407915540863 -6.695385670967291 -0.0017030519725425752 0.006325452730497295 -0.03457381314668633 -0.006231670032814215 0.0019759632205002806 8.071399635224338 3.5028109479162657 -19.258415007194348 -0.03036047758416313 10.437188700076922 0.049211954500056596 -5.639667655082963 -15.618953808076805 3.1506568654658653 0.006310412359783812 0.003260646205171232 -0.04892566408318699 -0.04090409095312442 4.666186937723749 -0.04397911741846322 12.451781393905222 -8.243112315102573 6.876578313316872 -0.040240685037243006 46.35693331532545 0.02865791840740036 -4.351004181929906 -14.738008652016298 -3.872997818666518 0.014620924114525527 -0.04165309756225782 0.027436874517297087 0.028797687574744164 -10.744403815920379 -0.0006114537923204981 
